<svg width="28" height="26" viewBox="0 0 28 26" fill="none" xmlns="http://www.w3.org/2000/svg">
<path d="M27.4713 0.357424C26.9936 -0.0559772 26.2435 -0.115127 25.4678 0.202724H25.4665C24.6508 0.536825 2.3746 10.2895 1.46776 10.6879C1.30282 10.7464 -0.137676 11.295 0.0107043 12.517C0.143164 13.6188 1.30091 14.0751 1.44229 14.1277L7.10558 16.107C7.4813 17.3836 8.8664 22.0935 9.17271 23.0997C9.36376 23.7269 9.67517 24.5511 10.2209 24.7208C10.6998 24.9093 11.1762 24.737 11.4844 24.49L14.9468 21.2121L20.5362 25.6614L20.6693 25.7426C21.0489 25.9142 21.4125 26 21.7596 26C22.0277 26 22.285 25.9487 22.5308 25.846C23.3682 25.4949 23.7032 24.6805 23.7382 24.5882L27.9132 2.43808C28.1679 1.25508 27.8139 0.653175 27.4713 0.357424ZM12.1002 16.8987L10.1897 22.0987L8.27925 15.5987L22.9262 4.54864L12.1002 16.8987Z" fill="white" fill-opacity="0.8"/>
</svg>
