<svg width="90" height="79" viewBox="0 0 90 79" fill="none" xmlns="http://www.w3.org/2000/svg">
<path d="M4.04855 78.11C3.20429 78.11 2.55671 77.942 2.1058 77.606C1.6442 77.2536 1.31877 76.7521 1.18479 76.1868C1.01113 75.4878 0.928893 74.7692 0.94015 74.0491V66.316H2.49435V74.1211C2.49124 74.5791 2.52493 75.0366 2.59509 75.4891C2.63979 75.8524 2.79305 76.1937 3.0348 76.4684C3.25972 76.7084 3.59764 76.8284 4.04855 76.8284C4.49946 76.8284 4.84111 76.7084 5.07349 76.4684C5.31077 76.1917 5.46098 75.851 5.50521 75.4891C5.57537 75.0366 5.60906 74.5791 5.60595 74.1211V66.316H7.14576V74.0491C7.15702 74.7692 7.07478 75.4878 6.90112 76.1868C6.76674 76.7498 6.44332 77.2497 5.9849 77.6028C5.53826 77.9388 4.89281 78.1068 4.04855 78.1068" fill="white"/>
<path d="M8.85507 77.9804V66.316H9.96316L13.273 74.0635V66.316H14.6258V77.9804H13.5896L10.2366 70.0169V77.9804H8.85507Z" fill="white"/>
<path d="M18.1371 66.316H16.5397V77.9804H18.1371V66.316Z" fill="white"/>
<path d="M21.303 77.9804V67.5257H19.3315V66.316H24.8432V67.5257H22.9292V77.9804H21.303Z" fill="white"/>
<path d="M25.9657 77.9804V66.316H30.4843V67.5257H27.5918V71.385H29.9375V72.537H27.5918V76.814H30.5131V77.9804H25.9657Z" fill="white"/>
<path d="M31.8227 77.9804V66.316H34.3554C35.2189 66.316 35.9027 66.4477 36.4069 66.7112C36.8989 66.9634 37.2825 67.3859 37.4862 67.9001C37.7184 68.531 37.827 69.2009 37.806 69.8729V74.1643C37.826 74.8739 37.7177 75.5813 37.4862 76.2524C37.294 76.7896 36.9231 77.2443 36.4357 77.5404C35.9517 77.8348 35.3015 77.9815 34.485 77.9804H31.8227ZM33.4488 76.814H34.3698C34.9646 76.814 35.3868 76.6988 35.6362 76.4684C35.9045 76.1984 36.0659 75.8403 36.0903 75.4603C36.1467 74.9289 36.1728 74.3947 36.1687 73.8603V70.0826C36.1781 69.5904 36.1396 69.0984 36.0535 68.6137C36.0291 68.45 35.9719 68.293 35.8853 68.1519C35.7988 68.0109 35.6847 67.8888 35.5499 67.7929C35.2908 67.6126 34.8858 67.5225 34.3347 67.5225H33.4568L33.4488 76.814Z" fill="white"/>
<path d="M44.3858 66.316H42.7884V77.9804H44.3858V66.316Z" fill="white"/>
<path d="M47.5518 77.9804V67.5257H45.5803V66.316H51.0919V67.5257H49.1779V77.9804H47.5518Z" fill="white"/>
<path d="M58.4312 78.11C57.6061 78.11 56.9665 77.9372 56.5124 77.5916C56.0533 77.241 55.72 76.7509 55.5626 76.1948C55.3779 75.5608 55.2874 74.9031 55.294 74.2427V70.1178C55.2815 69.422 55.3709 68.7283 55.5594 68.0585C55.7116 67.5095 56.0467 67.029 56.5092 66.6968C56.9644 66.3768 57.604 66.2168 58.428 66.2168C59.1571 66.2168 59.7349 66.3512 60.1613 66.62C60.5889 66.8896 60.9133 67.2954 61.0823 67.7721C61.2825 68.3505 61.3778 68.9601 61.3637 69.5721V70.4938H59.8239V69.6729C59.8266 69.29 59.8047 68.9074 59.7583 68.5273C59.7346 68.2375 59.6101 67.9652 59.4066 67.7577C59.2147 67.5753 58.8949 67.4841 58.4472 67.4841C57.9995 67.4841 57.6637 67.5822 57.4398 67.7785C57.2142 68.0037 57.0697 68.2974 57.0289 68.6137C56.9625 69.0306 56.9314 69.4524 56.9361 69.8745V74.4971C56.9228 74.9644 56.9712 75.4314 57.0801 75.886C57.1448 76.1795 57.3156 76.4388 57.5597 76.614C57.83 76.7708 58.1399 76.8459 58.452 76.83C58.8933 76.83 59.2099 76.7313 59.4018 76.534C59.6065 76.3092 59.7328 76.024 59.7615 75.7212C59.8129 75.32 59.837 74.9159 59.8335 74.5115V73.6475H61.3733V74.5115C61.3839 75.1473 61.2965 75.7809 61.1143 76.39C60.9651 76.8995 60.6513 77.3452 60.222 77.6572C59.7956 77.9602 59.2008 78.1116 58.4376 78.1116" fill="white"/>
<path d="M62.9211 77.9804V66.316H64.5472V76.814H67.5261V77.9804H62.9211Z" fill="white"/>
<path d="M71.6419 78.11C70.7976 78.11 70.1484 77.942 69.6991 77.606C69.2366 77.2545 68.9109 76.7526 68.7781 76.1868C68.6036 75.488 68.5214 74.7693 68.5335 74.0491V66.316H70.0861V74.1211C70.0827 74.5791 70.1169 75.0367 70.1884 75.4891C70.2319 75.8524 70.3847 76.1939 70.6265 76.4684C70.852 76.7084 71.1894 76.8284 71.6419 76.8284C72.0944 76.8284 72.4414 76.7084 72.6636 76.4684C72.9003 76.1914 73.0505 75.8508 73.0954 75.4891C73.1647 75.0365 73.1984 74.579 73.1961 74.1211V66.316H74.7359V74.0491C74.7468 74.7693 74.664 75.4879 74.4897 76.1868C74.3568 76.7505 74.0345 77.2516 73.5766 77.606C73.13 77.942 72.4851 78.11 71.6419 78.11Z" fill="white"/>
<path d="M76.4484 77.9804V66.316H79.1251C79.5888 66.3078 80.0513 66.366 80.4986 66.4888C80.8595 66.5886 81.1923 66.771 81.4707 67.0216C81.7365 67.2728 81.9345 67.587 82.0464 67.9353C82.178 68.3571 82.2412 68.7974 82.2334 69.2393C82.242 69.6614 82.181 70.082 82.0528 70.4842C81.9522 70.8065 81.7627 71.0938 81.5059 71.313C81.2335 71.5265 80.9077 71.661 80.5641 71.7018C80.9824 71.7829 81.3734 71.9684 81.701 72.241C81.995 72.5068 82.2153 72.8441 82.3406 73.2203C82.4904 73.6852 82.5612 74.1719 82.55 74.6603C82.5549 75.1221 82.4968 75.5823 82.3774 76.0284C82.276 76.414 82.0915 76.7728 81.8369 77.0796C81.5829 77.3741 81.2622 77.6034 80.9015 77.7484C80.4734 77.9162 80.0164 77.9972 79.5568 77.9868L76.4484 77.9804ZM78.0745 71.1834H79.0339C79.4038 71.2007 79.7728 71.134 80.1132 70.9882C80.3706 70.8597 80.5671 70.6349 80.6601 70.3626C80.777 70.0011 80.8311 69.6223 80.82 69.2425C80.82 68.7092 80.7384 68.3203 80.5753 68.0761C80.4859 67.9523 80.3721 67.8481 80.2409 67.77C80.1097 67.6918 79.964 67.6413 79.8126 67.6217C79.3674 67.5511 78.917 67.5179 78.4663 67.5225H78.0777L78.0745 71.1834ZM78.0745 76.814H79.1682C79.8963 76.814 80.3829 76.6433 80.6281 76.302C80.8733 75.9606 80.9958 75.4113 80.9958 74.6539C81.0073 74.2347 80.9412 73.817 80.8008 73.4219C80.6858 73.109 80.4675 72.8448 80.182 72.673C79.8297 72.4898 79.4353 72.4031 79.0387 72.4218H78.0793L78.0745 76.814Z" fill="white"/>
<path d="M86.7362 78.11C86.1475 78.1316 85.5653 77.9815 85.0604 77.678C84.612 77.388 84.2589 76.9723 84.0451 76.4828C83.803 75.9222 83.6664 75.3217 83.6422 74.7115L85.0812 74.3227C85.1088 74.7263 85.1741 75.1265 85.2763 75.5179C85.3594 75.8689 85.5299 76.1931 85.772 76.4604C85.8971 76.5857 86.0472 76.6833 86.2125 76.7467C86.3778 76.8101 86.5546 76.8379 86.7314 76.8284C87.1535 76.8284 87.4733 76.7116 87.6907 76.4748C87.9082 76.238 88.0105 75.902 88.0105 75.4603C88.0338 75.0058 87.9074 74.5561 87.6508 74.1803C87.3815 73.8273 87.0778 73.5019 86.7442 73.2091L84.787 71.481C84.4288 71.1781 84.1394 70.8023 83.938 70.3786C83.7422 69.9121 83.649 69.409 83.6645 68.9033C83.6645 68.0499 83.9092 67.3875 84.3985 66.916C84.8877 66.4445 85.5545 66.2093 86.3988 66.2104C86.8115 66.2029 87.2226 66.2634 87.6156 66.3896C87.9494 66.4995 88.251 66.6902 88.4934 66.9448C88.7425 67.2176 88.9335 67.5382 89.0547 67.8873C89.2043 68.3178 89.2983 68.7657 89.3345 69.2201L87.9594 69.6025C87.935 69.2448 87.8772 68.8902 87.7867 68.5433C87.7147 68.2456 87.5574 67.9753 87.3342 67.7657C87.0727 67.5538 86.7409 67.4486 86.4052 67.4713C86.0613 67.4493 85.7228 67.5643 85.4634 67.7913C85.2374 68.0046 85.1244 68.3246 85.1244 68.7513C85.1134 69.0544 85.1754 69.3556 85.3051 69.6297C85.4554 69.8979 85.6525 70.1369 85.8871 70.3354L87.8586 72.0634C88.3111 72.4637 88.7023 72.9284 89.0195 73.4427C89.3654 74.0128 89.5402 74.6704 89.5232 75.3371C89.537 75.8568 89.4129 76.3708 89.1634 76.8268C88.9345 77.2352 88.5924 77.5686 88.1784 77.7868C87.7331 78.0134 87.2389 78.1272 86.7394 78.118" fill="white"/>
<path fill-rule="evenodd" clip-rule="evenodd" d="M25.3852 15.5009L21.7828 13.4197L45.011 0L68.2329 13.4197L64.6313 15.501L67.4334 17.1206V20.3691L71.0455 18.2823V45.1217L47.8172 58.5429V54.38L45.011 56.002L42.2074 54.382L42.2064 58.5429L18.9846 45.1217V18.2823L22.5823 20.3608V17.1206L25.3852 15.5009ZM26.9868 16.4262L24.9811 17.585L45.0117 29.1587L65.0396 17.5877L63.03 16.4264L45.011 26.8394L26.9868 16.4262ZM65.8345 18.9761L45.8105 30.5448V53.6872L47.8172 52.5275V31.702L65.8345 21.2929V18.9761ZM24.1812 21.2846V18.9704L44.2116 30.5435V53.6873L42.2079 52.5297L42.2128 31.702L24.1812 21.2846ZM61.4313 15.5025L45.011 24.9929L28.5856 15.5025L45.011 6.01302L61.4313 15.5025ZM63.0327 14.5769L45.011 4.16016L26.9839 14.5771L24.9807 13.4197L45.011 1.84807L65.035 13.4197L63.0327 14.5769ZM65.8345 23.1397L49.4162 32.622V51.6034L65.8345 42.1151V23.1397ZM49.4162 53.4558V55.77L69.4465 44.1984V21.0536L67.4334 22.2162V43.0416L49.4162 53.4558ZM40.6138 51.6088V32.6268L24.1812 23.1323V42.1151L40.6138 51.6088ZM22.5823 22.2084L20.5835 21.0536V44.1984L40.6138 55.77V53.4611L22.5823 43.0416V22.2084Z" fill="white"/>
</svg>
